<svg xmlns="http://www.w3.org/2000/svg" xmlns:xlink="http://www.w3.org/1999/xlink" width="375" height="150" viewBox="0 0 375 150" fill="none"><rect x="0" y="0" width="0" height="0" fill="rgba(249, 249, 249, 1)" /><g opacity="1"  transform="translate(0 0)  rotate(0)"><rect fill="#FFF5F5" opacity="1" transform="translate(0 0)  rotate(NaN)" x="0" y="0" width="375" height="150" rx="10" ry="10"/><mask id="bg-mask-0" fill="white"><use transform="translate(0 0)  rotate(NaN)" xlink:href="#path_0"></use></mask><g mask="url(#bg-mask-0)" ><path id="圆形 1" fill-rule="evenodd" style="fill:#FF914D" opacity="1" d="M153 115C149.69 115 147 117.69 147 121C147 124.31 149.69 127 153 127C156.31 127 159 124.31 159 121C159 117.69 156.31 115 153 115Z"></path><g opacity="1"  transform="translate(175.63101196289062 42)  rotate(0)"><mask id="bg-mask-1" fill="white"><use transform="translate(0 0)  rotate(41.63925318987725)" xlink:href="#path_1"></use></mask><g mask="url(#bg-mask-1)" ><path id="路径 1" fill-rule="evenodd" style="fill:#FF914D" opacity="1" d="M-3.92957,8.4684l0.73851,5.942c0.0639,0.485 0.46082,0.8512 0.95079,0.8721l6.00582,0.2281c1.32457,0.1205 2.59606,-0.542 3.25057,-1.6996c0.65452,-1.1576 0.57078,-2.5835 -0.21472,-3.6565c-0.79215,-1.06559 -2.1391,-1.56732 -3.44044,-1.29257l-0.67103,0.15274l0.07315,-0.68429c0.12221,-1.29632 -0.50383,-2.54871 -1.61242,-3.21319c-1.10942,-0.67859 -2.5104,-0.65298 -3.59422,0.0694c-1.08464,0.70827 -1.66858,1.98213 -1.48684,3.26769v0zM-3.85864,5.09261c1.1827,-1.33027 3.05293,-1.80843 4.72375,-1.21947c1.6783,0.59561 2.825,2.15033 2.90787,3.92336c1.77054,-0.12522 3.44879,0.83163 4.23673,2.4287c0.78047,1.5904 0.5245,3.5037 -0.6582,4.834c-0.91692,1.0313 -2.27311,1.5785 -3.65497,1.4471l-5.97012,-0.2232c-0.97993,-0.0416 -1.79537,-0.7799 -1.90904,-1.7507l-0.73851,-5.94202c-0.17344,-1.2648 0.21202,-2.54117 1.0625,-3.49777z"></path></g></g><path id="矩形 2" fill-rule="evenodd" style="fill:#FF914D" opacity="1" d="M43 16L57 16L57 14L43 14L43 16Z"></path><g opacity="1" transform="translate(43 21)  rotate(0)"><a xlink:href="https://" xlink:title="跳转" target="_blank"><text><tspan x="0" y="7.768" font-size="8" line-height="0" fill="#FF914D" opacity="1" font-family="Cinzel-Bold" font-weight="Bold" letter-spacing="0" >LETAO</tspan></text></a></g><g id="文本 1" filter="url(#filter_6)"><g opacity="1" transform="translate(41 43)  rotate(0)"><path id="文本 1"  style="fill:#FF914D" opacity="1" d="M5.208 16.512C4.104 18.528 2.304 20.784 0.696 22.224C1.368 22.632 2.568 23.496 3.12 24C4.68 22.368 6.672 19.752 7.992 17.448L5.208 16.512ZM16.296 17.592C17.832 19.584 19.68 22.296 20.496 23.952L23.232 22.704C22.32 21 20.352 18.432 18.816 16.56L16.296 17.592ZM3.048 15.504C3.264 15.24 4.656 15.12 6.072 15.12L11.04 15.12L11.04 21.96C11.04 22.344 10.872 22.44 10.464 22.44C10.008 22.44 8.544 22.464 7.224 22.416C7.632 23.232 8.064 24.528 8.208 25.344C10.224 25.368 11.688 25.296 12.696 24.816C13.704 24.36 14.016 23.568 14.016 22.008L14.016 15.12L22.248 15.12L22.248 12.216L14.016 12.216L14.016 8.064L11.04 8.064L11.04 12.216L5.688 12.216C6.024 10.656 6.384 8.832 6.552 7.056C11.64 6.936 17.256 6.528 21.408 5.664L19.944 3.048C15.792 3.936 9.36 4.392 3.696 4.488C3.696 7.344 3.144 10.488 2.952 11.304C2.736 12.168 2.496 12.696 2.088 12.864C2.424 13.584 2.88 14.904 3.048 15.504ZM30.848 5.28C32.12 5.952 33.872 6.96 34.712 7.632L36.536 5.424C35.624 4.752 33.848 3.816 32.6 3.264L30.848 5.28ZM29.6 11.832C30.824 12.432 32.528 13.368 33.32 14.016L35.096 11.76C34.208 11.136 32.456 10.296 31.256 9.792L29.6 11.832ZM30.2 23.136L32.816 24.96C33.968 22.632 35.144 19.92 36.104 17.424L33.8 15.6C32.696 18.36 31.256 21.336 30.2 23.136ZM38.72 2.904C37.664 5.688 35.864 8.472 33.848 10.2C34.52 10.584 35.624 11.4 36.152 11.88C36.968 11.04 37.808 10.008 38.6 8.832L48.824 8.832C48.728 18 48.608 21.696 47.984 22.464C47.768 22.776 47.504 22.872 47.072 22.872C46.448 22.872 45.176 22.872 43.712 22.752C44.192 23.472 44.528 24.624 44.576 25.368C45.944 25.416 47.408 25.44 48.32 25.296C49.232 25.152 49.88 24.888 50.504 23.952C51.32 22.752 51.44 18.936 51.536 7.632C51.536 7.296 51.536 6.288 51.536 6.288L40.136 6.288C40.592 5.424 41.024 4.512 41.384 3.624L38.72 2.904ZM37.208 17.352L37.208 21.96L47.336 21.96L47.336 17.352L44.936 17.352L44.936 19.824L43.472 19.824L43.472 16.656L47.72 16.656L47.72 14.472L43.472 14.472L43.472 12.912L46.904 12.912L46.904 10.704L41.096 10.704L41.696 9.48L39.368 8.832C38.696 10.488 37.592 12.264 36.416 13.416C37.04 13.68 38.12 14.136 38.648 14.472C39.032 14.04 39.416 13.512 39.824 12.912L41.024 12.912L41.024 14.472L36.488 14.472L36.488 16.656L41.024 16.656L41.024 19.824L39.536 19.824L39.536 17.352L37.208 17.352ZM77.008 12.864L77.008 15.768C76 14.928 74.368 13.752 73.072 12.864L77.008 12.864ZM68.176 3.48L68.92 5.208L59.32 5.208L59.32 7.632L65.872 7.632L64.288 8.136C64.648 8.88 65.104 9.84 65.392 10.56L60.448 10.56L60.448 25.392L63.184 25.392L63.184 12.864L67.48 12.864C66.4 13.848 64.648 14.88 63.256 15.576C63.616 16.152 64.168 17.472 64.336 17.952L65.248 17.352L65.248 23.472L67.648 23.472L67.648 22.488L74.608 22.488L74.608 17.016C74.992 17.328 75.304 17.616 75.568 17.88L77.008 16.32L77.008 22.776C77.008 23.112 76.864 23.232 76.456 23.232C76.12 23.256 74.728 23.256 73.552 23.208C73.888 23.784 74.224 24.696 74.344 25.32C76.264 25.32 77.584 25.32 78.448 24.96C79.336 24.624 79.648 24.048 79.648 22.776L79.648 10.56L74.656 10.56C75.136 9.84 75.664 9 76.168 8.136L73.672 7.632L80.752 7.632L80.752 5.208L72.208 5.208C71.896 4.44 71.464 3.504 71.08 2.784L68.176 3.48ZM66.544 10.56L68.296 9.936C68.056 9.36 67.552 8.4 67.12 7.632L73.024 7.632C72.736 8.52 72.256 9.648 71.776 10.56L66.544 10.56ZM70.984 14.184C71.944 14.88 73.096 15.768 74.104 16.584L66.328 16.584C67.48 15.72 68.632 14.736 69.472 13.824L67.552 12.864L72.304 12.864L70.984 14.184ZM67.648 18.576L72.304 18.576L72.304 20.52L67.648 20.52L67.648 18.576ZM97.032 14.232C96.936 14.976 96.792 15.648 96.624 16.272L89.808 16.272L89.808 18.744L95.568 18.744C94.152 21 91.752 22.32 88.224 23.04C88.752 23.592 89.616 24.816 89.904 25.416C94.248 24.216 97.08 22.248 98.712 18.744L105.168 18.744C104.808 20.976 104.376 22.176 103.872 22.56C103.56 22.8 103.224 22.824 102.72 22.824C102 22.824 100.272 22.8 98.688 22.656C99.168 23.328 99.552 24.384 99.6 25.128C101.16 25.2 102.72 25.224 103.608 25.152C104.712 25.104 105.48 24.912 106.152 24.264C107.088 23.472 107.664 21.552 108.192 17.424C108.288 17.064 108.336 16.272 108.336 16.272L99.6 16.272C99.768 15.696 99.888 15.096 100.008 14.472L97.032 14.232ZM103.896 7.608C102.576 8.64 100.896 9.504 99 10.2C97.368 9.576 96.024 8.76 95.04 7.728L95.184 7.608L103.896 7.608ZM95.64 2.88C94.44 4.944 92.184 7.104 88.752 8.64C89.304 9.12 90.12 10.2 90.432 10.872C91.44 10.344 92.352 9.792 93.192 9.216C93.936 9.96 94.776 10.632 95.712 11.208C93.264 11.832 90.648 12.24 88.032 12.456C88.464 13.104 88.944 14.256 89.136 14.952C92.544 14.568 95.952 13.896 99.024 12.816C101.784 13.848 105.048 14.424 108.72 14.688C109.08 13.944 109.752 12.792 110.328 12.168C107.544 12.048 104.928 11.76 102.648 11.28C105.144 9.984 107.208 8.328 108.624 6.216L106.848 5.088L106.392 5.208L97.392 5.208C97.824 4.656 98.208 4.08 98.568 3.48L95.64 2.88Z"></path></g></g><path id="矩形 3" fill-rule="evenodd" style="fill:#FF914D" opacity="1" d="M43 92L144 92C149.52 92 154 87.52 154 82L154 75L53 75C47.48 75 43 79.48 43 85L43 92Z"></path><g opacity="1" transform="translate(73 77)  rotate(0)"><a xlink:href="https://" xlink:title="跳转" target="_blank"><text><tspan x="0" y="11.484" font-size="11" line-height="0" fill="#FFFFFF" opacity="1" font-family="MiSans-Bold" font-weight="Bold" letter-spacing="2"  >爱上购</tspan><tspan x="39" y="11.484" font-size="11" line-height="0" fill="#FFFFFF" opacity="1" font-family="MiSans-Bold" font-weight="Bold" letter-spacing="0" >物</tspan></text></a></g><path id="星形 1" fill-rule="evenodd" style="fill:#FF914D" opacity="1" d="M46.64 136.36L46 134L45.36 136.36L43 137L45.36 137.64L46 140L46.64 137.64L49 137L46.64 136.36Z"></path><path id="星形 1" fill-rule="evenodd" style="fill:#FF914D" opacity="1" d="M55.64 136.36L55 134L54.36 136.36L52 137L54.36 137.64L55 140L55.64 137.64L58 137L55.64 136.36Z"></path><path id="星形 1" fill-rule="evenodd" style="fill:#FF914D" opacity="1" d="M64.64 136.36L64 134L63.36 136.36L61 137L63.36 137.64L64 140L64.64 137.64L67 137L64.64 136.36Z"></path><g opacity="1" transform="translate(12 3)  rotate(0)"><a xlink:href="https://" xlink:title="跳转" target="_blank"><text><tspan x="1.032" y="8.024000000000001" font-size="4" line-height="13" fill="#FFFFFF" opacity="1" font-family="MiSans-Regular" font-weight="Regular" letter-spacing="0"  >N</tspan><tspan x="1.306000000000001" y="21.024" font-size="4" line-height="13" fill="#FFFFFF" opacity="1" font-family="MiSans-Regular" font-weight="Regular" letter-spacing="0"  >E</tspan><tspan x="0.5680000000000005" y="34.024" font-size="4" line-height="13" fill="#FFFFFF" opacity="1" font-family="MiSans-Regular" font-weight="Regular" letter-spacing="0"  >W</tspan><tspan x="4.432000000000001" y="34.024" font-size="4" line-height="13" fill="#FFFFFF" opacity="1" font-family="MiSans-Regular" font-weight="Regular" letter-spacing="0"  > </tspan><tspan x="1.2899999999999991" y="47.024" font-size="4" line-height="13" fill="#FFFFFF" opacity="1" font-family="MiSans-Regular" font-weight="Regular" letter-spacing="0"  >S</tspan><tspan x="1.0939999999999994" y="60.024" font-size="4" line-height="13" fill="#FFFFFF" opacity="1" font-family="MiSans-Regular" font-weight="Regular" letter-spacing="0"  >U</tspan><tspan x="0.7439999999999998" y="73.024" font-size="4" line-height="13" fill="#FFFFFF" opacity="1" font-family="MiSans-Regular" font-weight="Regular" letter-spacing="0"  >M</tspan><tspan x="0.7439999999999998" y="86.024" font-size="4" line-height="13" fill="#FFFFFF" opacity="1" font-family="MiSans-Regular" font-weight="Regular" letter-spacing="0"  >M</tspan><tspan x="1.306000000000001" y="99.024" font-size="4" line-height="13" fill="#FFFFFF" opacity="1" font-family="MiSans-Regular" font-weight="Regular" letter-spacing="0"  >E</tspan><tspan x="1.2319999999999993" y="112.024" font-size="4" line-height="13" fill="#FFFFFF" opacity="1" font-family="MiSans-Regular" font-weight="Regular" letter-spacing="0" >R</tspan></text></a></g><path id="圆形 1" fill-rule="evenodd" style="fill:#FF914D" opacity="1" d="M272 14C238.31 14 211 41.31 211 75C211 108.69 238.31 136 272 136C305.69 136 333 108.69 333 75C333 41.31 305.69 14 272 14Z"></path><path  id="圆形 1" style="fill:#FF914D; opacity:1;" d="M207.5,-23c-11.322,0 -20.5,9.1782 -20.5,20.5c0,11.32183 9.178,20.5 20.5,20.5c11.322,0 20.5,-9.17817 20.5,-20.5c0,-11.3218 -9.178,-20.5 -20.5,-20.5zM207.5,-25c12.426,0 22.5,10.0736 22.5,22.5c0,12.42641 -10.074,22.5 -22.5,22.5c-12.426,0 -22.5,-10.07359 -22.5,-22.5c0,-12.4264 10.074,-22.5 22.5,-22.5z"></path><path  id="圆形 1" style="fill:#FF914D; opacity:1;" d="M352,125.5c-13.255,0 -24,10.745 -24,24c0,13.255 10.745,24 24,24c13.255,0 24,-10.745 24,-24c0,-13.255 -10.745,-24 -24,-24zM352,123.5c14.359,0 26,11.641 26,26c0,14.359 -11.641,26 -26,26c-14.359,0 -26,-11.641 -26,-26c0,-14.359 11.641,-26 26,-26z"></path><path id="圆形 1" fill-rule="evenodd" style="fill:#FF914D" opacity="1" d="M123 139C117.48 139 113 143.48 113 149C113 154.52 117.48 159 123 159C128.52 159 133 154.52 133 149C133 143.48 128.52 139 123 139Z"></path></g></g><defs><rect id="path_0" x="0" y="0" width="375" height="150" /><rect id="path_1" x="0" y="0" width="16" height="16" /><filter id="filter_6" x="41" y="41" width="116" height="37" filterUnits="userSpaceOnUse" color-interpolation-filters="sRGB"><feFlood flood-opacity="0" result="feFloodId"/>
          <feColorMatrix in="SourceAlpha" type="matrix" values="0 0 0 0 0 0 0 0 0 0 0 0 0 0 0 0 0 0 127 0" result="hardAlpha"/>
          
          <feOffset dx="0" dy="2"/>
          <feComposite in2="hardAlpha" operator="out"/>
          
          <feColorMatrix type="matrix" values="0 0 0 0 1 0 0 0 0 0.7686274509803922 0 0 0 0 0.7686274509803922 0 0 0 1 0"/>
          <feBlend mode="normal" in2="filter_feFlood" result="filter_feFlood_1"/>
          <feBlend mode="normal" in="SourceGraphic" in2="filter_6" result="shape"/></filter></defs></svg>